<svg xmlns="http://www.w3.org/2000/svg" viewBox="0 0 32 32">
  <rect width="32" height="32" rx="6" fill="#2a2115"/>
  <path fill="#c89b66" d="M16 5a1.2 1.2 0 0 1 1.2 1.2v1.13c2.6.14 4.24.72 4.77.94l1.83-.61a1.2 1.2 0 1 1 .76 2.27l-.9.3 3.06 6.43c.2.42.12.92-.24 1.25A5.3 5.3 0 0 1 23 19.4a5.3 5.3 0 0 1-3.48-1.49 1.2 1.2 0 0 1-.24-1.25l2.84-5.97c-.55-.18-1.68-.49-3.32-.6V24h3.4a1.2 1.2 0 1 1 0 2.4h-9.2a1.2 1.2 0 1 1 0-2.4h3.4V10.1c-1.64.1-2.77.41-3.32.6l2.84 5.96c.2.42.12.92-.24 1.25A5.3 5.3 0 0 1 9 19.4a5.3 5.3 0 0 1-3.48-1.49 1.2 1.2 0 0 1-.24-1.25l3.06-6.43-.9-.3a1.2 1.2 0 1 1 .76-2.27l1.83.6c.53-.2 2.17-.79 4.77-.93V6.2A1.2 1.2 0 0 1 16 5ZM9 12.6l-1.5 3.17c.43.25.94.38 1.5.38s1.07-.13 1.5-.38L9 12.6Zm14 0-1.5 3.17c.43.25.94.38 1.5.38s1.07-.13 1.5-.38L23 12.6Z"/>
</svg>
